name Visual3d_SIMM_grf.mot
datacolumns 19
datarows 43
range 3.180000 3.600000
endheader
time	ground_force_vx	ground_force_vy	ground_force_vz	ground_force_px	ground_force_py	ground_force_pz	l_ground_force_vx	l_ground_force_vy	l_ground_force_vz	l_ground_force_px	l_ground_force_py	l_ground_force_pz	ground_torque_x	ground_torque_y	ground_torque_z	l_ground_torque_x	l_ground_torque_y	l_ground_torque_z
3.180000	-2.428980	45.291134	10.651052	0.164635	0.019951	0.310446	33.953239	342.119293	19.169092	-0.213730	0.007350	0.034248	0.004362	0.883352	-0.016289	-0.006634	5.775920	-0.012277
3.190000	-1.073856	34.137730	11.351856	0.161648	0.015955	0.306053	36.849007	349.054962	18.716566	-0.211526	0.003085	0.031921	0.003787	0.766918	-0.014142	-0.006960	6.059887	-0.012881
3.200000	-0.201209	24.668871	11.318321	0.158672	0.012470	0.300094	39.868771	357.211609	18.136934	-0.209686	-0.000530	0.029631	0.003286	0.665529	-0.012272	-0.007312	6.365963	-0.013531
3.210000	0.000000	0.000000	0.000000	0.000000	0.000000	0.000000	42.881599	366.338196	17.379974	-0.208362	-0.003255	0.027557	0.000000	0.000000	0.000000	-0.007698	6.702256	-0.014246
3.220000	0.000000	0.000000	0.000000	0.000000	0.000000	0.000000	45.747604	376.118347	16.404459	-0.207524	-0.005104	0.025839	0.000000	0.000000	0.000000	-0.008125	7.074185	-0.015037
3.230000	0.000000	0.000000	0.000000	0.000000	0.000000	0.000000	48.327930	386.197876	15.194231	-0.207051	-0.006225	0.024522	0.000000	0.000000	0.000000	-0.008595	7.482815	-0.015905
3.240000	0.000000	0.000000	0.000000	0.000000	0.000000	0.000000	50.505566	396.233887	13.755875	-0.206809	-0.006806	0.023563	0.000000	0.000000	0.000000	-0.009102	7.924657	-0.016844
3.250000	0.000000	0.000000	0.000000	0.000000	0.000000	0.000000	52.207794	405.941162	12.106651	-0.206687	-0.007026	0.022880	0.000000	0.000000	0.000000	-0.009638	8.391498	-0.017837
3.260000	0.000000	0.000000	0.000000	0.000000	0.000000	0.000000	53.418293	415.099182	10.277981	-0.206606	-0.007031	0.022374	0.000000	0.000000	0.000000	-0.010189	8.870661	-0.018855
3.270000	0.000000	0.000000	0.000000	0.000000	0.000000	0.000000	54.176132	423.533936	8.327689	-0.206516	-0.006928	0.021950	0.000000	0.000000	0.000000	-0.010735	9.345991	-0.019865
3.280000	0.000000	0.000000	0.000000	0.000000	0.000000	0.000000	54.569790	431.099335	6.349138	-0.206400	-0.006780	0.021529	0.000000	0.000000	0.000000	-0.011255	9.799060	-0.020828
3.290000	0.000000	0.000000	0.000000	0.000000	0.000000	0.000000	54.718208	437.660797	4.473934	-0.206270	-0.006625	0.021040	0.000000	0.000000	0.000000	-0.011728	10.210914	-0.021704
3.300000	0.000000	0.000000	0.000000	0.000000	0.000000	0.000000	54.752762	443.088470	2.859556	-0.206155	-0.006482	0.020409	0.000000	0.000000	0.000000	-0.012133	10.563075	-0.022452
3.310000	0.000000	0.000000	0.000000	0.000000	0.000000	0.000000	54.801537	447.267151	1.667935	-0.206084	-0.006363	0.019563	0.000000	0.000000	0.000000	-0.012451	10.840116	-0.023041
3.320000	0.000000	0.000000	0.000000	0.000000	0.000000	0.000000	54.975750	450.102936	1.035530	-0.206074	-0.006277	0.018443	0.000000	0.000000	0.000000	-0.012673	11.033732	-0.023453
3.330000	0.000000	0.000000	0.000000	0.000000	0.000000	0.000000	55.342628	451.575134	1.030668	-0.206130	-0.006227	0.017021	0.000000	0.000000	0.000000	-0.012803	11.146699	-0.023693
3.340000	0.000000	0.000000	0.000000	0.000000	0.000000	0.000000	55.910294	451.810577	1.586114	-0.206246	-0.006213	0.015338	0.000000	0.000000	0.000000	-0.012857	11.193599	-0.023793
3.350000	0.000000	0.000000	0.000000	0.000000	0.000000	0.000000	56.630791	451.087860	2.481148	-0.206402	-0.006226	0.013498	0.000000	0.000000	0.000000	-0.012861	11.197130	-0.023800
3.360000	0.000000	0.000000	0.000000	0.000000	0.000000	0.000000	57.413597	449.784729	3.397116	-0.206571	-0.006255	0.011649	0.000000	0.000000	0.000000	-0.012842	11.180616	-0.023765
3.370000	0.000000	0.000000	0.000000	0.000000	0.000000	0.000000	58.145657	448.305450	3.997596	-0.206718	-0.006288	0.009949	0.000000	0.000000	0.000000	-0.012819	11.160310	-0.023722
3.380000	0.000000	0.000000	0.000000	0.000000	0.000000	0.000000	58.683586	446.899384	4.055861	-0.206815	-0.006316	0.008502	0.000000	0.000000	0.000000	-0.012792	11.137275	-0.023673
3.390000	0.000000	0.000000	0.000000	0.000000	0.000000	0.000000	58.828846	445.509827	3.585794	-0.206834	-0.006334	0.007302	0.000000	0.000000	0.000000	-0.012744	11.094997	-0.023583
3.400000	0.000000	0.000000	0.000000	0.000000	0.000000	0.000000	58.417728	443.898529	2.760701	-0.206756	-0.006344	0.006264	0.000000	0.000000	0.000000	-0.012645	11.009314	-0.023401
3.410000	0.000000	0.000000	0.000000	0.000000	0.000000	0.000000	57.404793	441.809998	1.786825	-0.206579	-0.006354	0.005274	0.000000	0.000000	0.000000	-0.012473	10.859527	-0.023083
3.420000	0.000000	0.000000	0.000000	0.000000	0.000000	0.000000	55.816689	439.024414	0.862491	-0.206312	-0.006370	0.004217	0.000000	0.000000	0.000000	-0.012208	10.628316	-0.022591
3.430000	0.000000	0.000000	0.000000	0.000000	0.000000	0.000000	53.702961	435.390564	0.149390	-0.205963	-0.006392	0.002989	0.000000	0.000000	0.000000	-0.011831	10.300650	-0.021895
3.440000	0.000000	0.000000	0.000000	0.000000	0.000000	0.000000	51.153873	430.875763	-0.265896	-0.205547	-0.006418	0.001517	0.000000	0.000000	0.000000	-0.011335	9.868315	-0.020976
3.450000	0.000000	0.000000	0.000000	0.000000	0.000000	0.000000	48.311226	425.587311	-0.385846	-0.205087	-0.006443	-0.000228	0.000000	0.000000	0.000000	-0.010721	9.333977	-0.019840
3.460000	0.000000	0.000000	0.000000	0.000000	0.000000	0.000000	45.349743	419.744049	-0.279643	-0.204610	-0.006467	-0.002223	0.000000	0.000000	0.000000	-0.010006	8.711177	-0.018516
3.470000	0.000000	0.000000	0.000000	0.000000	0.000000	0.000000	42.448017	413.611969	-0.040173	-0.204145	-0.006485	-0.004405	0.000000	0.000000	0.000000	-0.009214	8.022130	-0.017052
3.480000	0.000000	0.000000	0.000000	0.000000	0.000000	0.000000	39.760578	407.445770	0.253297	-0.203717	-0.006494	-0.006684	0.000000	0.000000	0.000000	-0.008378	7.293732	-0.015503
3.490000	0.000000	0.000000	0.000000	0.000000	0.000000	0.000000	37.397099	401.445770	0.556109	-0.203346	-0.006487	-0.008977	0.000000	0.000000	0.000000	-0.007526	6.552537	-0.013928
3.500000	0.000000	0.000000	0.000000	0.000000	0.000000	0.000000	35.417740	395.747559	0.859774	-0.203045	-0.006461	-0.011228	0.000000	0.000000	0.000000	-0.006687	5.821671	-0.012374
3.510000	0.000000	0.000000	0.000000	0.000000	0.000000	0.000000	33.839001	390.427734	1.184168	-0.202819	-0.006413	-0.013421	0.000000	0.000000	0.000000	-0.005879	5.118452	-0.010880
3.520000	0.000000	0.000000	0.000000	0.000000	0.000000	0.000000	32.633831	385.505341	1.564466	-0.202663	-0.006343	-0.015555	0.000000	0.000000	0.000000	-0.005115	4.453551	-0.009466
3.530000	0.000000	0.000000	0.000000	0.000000	0.000000	0.000000	31.740534	380.958466	2.028435	-0.202573	-0.006247	-0.017635	0.000000	0.000000	0.000000	-0.004402	3.832399	-0.008146
3.540000	0.000000	0.000000	0.000000	0.000000	0.000000	0.000000	31.080523	376.746521	2.569607	-0.202541	-0.006120	-0.019655	0.000000	0.000000	0.000000	-0.003741	3.256816	-0.006923
3.550000	0.000000	0.000000	0.000000	0.000000	0.000000	0.000000	30.579166	372.844299	3.134038	-0.202565	-0.005960	-0.021613	0.000000	0.000000	0.000000	-0.003133	2.727651	-0.005798
3.560000	-3.141844	25.356768	21.908472	0.118539	-0.010743	-0.102103	30.181456	369.230408	3.625665	-0.202648	-0.005770	-0.023514	0.005055	-0.458171	-0.009398	-0.002580	2.246441	-0.004775
3.570000	-2.655706	36.650894	20.476408	0.120920	-0.010747	-0.094033	29.856878	365.861847	3.938228	-0.202786	-0.005560	-0.025360	0.003973	-0.360082	-0.007386	-0.002086	1.815749	-0.003859
3.580000	-2.448152	51.310951	17.008631	0.123097	-0.010565	-0.088494	29.594336	362.662567	3.988038	-0.202975	-0.005347	-0.027132	0.002790	-0.252863	-0.005187	-0.001652	1.438288	-0.003057
3.590000	-2.739464	69.072212	11.866016	0.125162	-0.010158	-0.086175	29.398666	359.515564	3.727300	-0.203205	-0.005148	-0.028788	0.001670	-0.151407	-0.003106	-0.001282	1.115838	-0.002372
3.600000	-3.660957	88.867050	5.903813	0.127069	-0.009531	-0.087315	29.286053	356.273376	3.146974	-0.203473	-0.004983	-0.030262	0.000926	-0.083957	-0.001722	-0.000975	0.848892	-0.001804
